<?xml version="1.0" encoding="UTF-8"?>
<svg xmlns="http://www.w3.org/2000/svg" viewBox="0 0 800 800" width="800" height="800">
    <svg x="32" y="48" width="704" height="704" viewBox="0 0 1200 1200">
        <svg id="_17-001" data-name="17-001" xmlns="http://www.w3.org/2000/svg" viewBox="0 0 1200 1200">
  <defs>
    <style>
      .cls-1 {
        fill: none;
        stroke: #5e5f5f;
        stroke-linecap: round;
        stroke-linejoin: round;
        stroke-width: 4px;
      }
    </style>
  </defs>
  <g id="LINE">
    <line class="cls-1" x1="816.41" y1="284.62" x2="788.18" y2="211.34"/>
  </g>
  <g id="LINE-2" data-name="LINE">
    <line class="cls-1" x1="665.1" y1="945.3" x2="671.71" y2="949.11"/>
  </g>
  <g id="LINE-3" data-name="LINE">
    <line class="cls-1" x1="688.03" y1="1073.43" x2="770.58" y2="1025.78"/>
  </g>
  <g id="LINE-4" data-name="LINE">
    <line class="cls-1" x1="501.18" y1="919.53" x2="501.18" y2="920.42"/>
  </g>
  <g id="ARC">
    <path class="cls-1" d="M519.27,908.89c0-4.84-3.92-8.76-8.76-8.76s-8.76,3.92-8.76,8.76"/>
  </g>
  <g id="LINE-5" data-name="LINE">
    <line class="cls-1" x1="519.27" y1="911.03" x2="519.27" y2="908.89"/>
  </g>
  <g id="LINE-6" data-name="LINE">
    <line class="cls-1" x1="501.76" y1="908.89" x2="501.76" y2="911.03"/>
  </g>
  <g id="LINE-7" data-name="LINE">
    <line class="cls-1" x1="439.87" y1="800.65" x2="656.65" y2="925.79"/>
  </g>
  <g id="LINE-8" data-name="LINE">
    <line class="cls-1" x1="684.84" y1="876.96" x2="468.06" y2="751.81"/>
  </g>
  <g id="LINE-9" data-name="LINE">
    <line class="cls-1" x1="664.79" y1="152.85" x2="587.99" y2="229.46"/>
  </g>
  <g id="LWPOLYLINE">
    <polyline class="cls-1" points="587.99 229.46 586.54 230.96 583.87 233.96 581.34 237.15 578.97 240.51 576.76 244.02 574.74 247.64 572.92 251.34 571.32 255.11 569.94 258.91 568.81 262.72 567.93 266.5 567.31 270.23 566.95 273.88 566.87 276.69"/>
  </g>
  <g id="LINE-10" data-name="LINE">
    <line class="cls-1" x1="566.87" y1="276.69" x2="566.87" y2="343.26"/>
  </g>
  <g id="ARC-2" data-name="ARC">
    <path class="cls-1" d="M701.9,172.18c-.29-.75-.82-1.37-1.52-1.77"/>
  </g>
  <g id="LINE-11" data-name="LINE">
    <line class="cls-1" x1="703.22" y1="175.62" x2="701.9" y2="172.18"/>
  </g>
  <g id="LINE-12" data-name="LINE">
    <line class="cls-1" x1="700.38" y1="170.41" x2="669.01" y2="152.3"/>
  </g>
  <g id="LINE-13" data-name="LINE">
    <line class="cls-1" x1="566.87" y1="343.26" x2="601.74" y2="363.39"/>
  </g>
  <g id="ARC-3" data-name="ARC">
    <path class="cls-1" d="M669.01,152.3c-1.37-.79-3.1-.56-4.22.55"/>
  </g>
  <g id="LINE-14" data-name="LINE">
    <line class="cls-1" x1="625.99" y1="130.45" x2="549.19" y2="207.06"/>
  </g>
  <g id="LWPOLYLINE-2" data-name="LWPOLYLINE">
    <polyline class="cls-1" points="549.19 207.06 547.74 208.56 545.07 211.56 542.54 214.75 540.16 218.11 537.96 221.62 535.94 225.24 534.12 228.94 532.52 232.71 531.14 236.51 530.01 240.32 529.13 244.1 528.51 247.83 528.15 251.48 528.07 254.29"/>
  </g>
  <g id="LINE-15" data-name="LINE">
    <line class="cls-1" x1="528.07" y1="254.29" x2="528.07" y2="320.86"/>
  </g>
  <g id="ARC-4" data-name="ARC">
    <path class="cls-1" d="M663.1,149.78c-.29-.75-.82-1.37-1.52-1.77"/>
  </g>
  <g id="LINE-16" data-name="LINE">
    <line class="cls-1" x1="664.42" y1="153.22" x2="663.1" y2="149.78"/>
  </g>
  <g id="LINE-17" data-name="LINE">
    <line class="cls-1" x1="661.58" y1="148.01" x2="630.21" y2="129.9"/>
  </g>
  <g id="LINE-18" data-name="LINE">
    <line class="cls-1" x1="528.07" y1="320.86" x2="562.94" y2="340.99"/>
  </g>
  <g id="ARC-5" data-name="ARC">
    <path class="cls-1" d="M630.21,129.9c-1.37-.79-3.1-.56-4.22.55"/>
  </g>
  <g id="LINE-19" data-name="LINE">
    <line class="cls-1" x1="703.59" y1="175.25" x2="626.79" y2="251.86"/>
  </g>
  <g id="LWPOLYLINE-3" data-name="LWPOLYLINE">
    <polyline class="cls-1" points="626.79 251.86 625.34 253.36 622.67 256.36 620.14 259.55 617.77 262.91 615.56 266.42 613.54 270.03 611.72 273.74 610.12 277.51 608.74 281.31 607.61 285.11 606.73 288.9 606.11 292.63 605.75 296.28 605.67 299.09"/>
  </g>
  <g id="LINE-20" data-name="LINE">
    <line class="cls-1" x1="605.67" y1="299.09" x2="605.67" y2="365.65"/>
  </g>
  <g id="ARC-6" data-name="ARC">
    <path class="cls-1" d="M740.7,194.58c-.29-.75-.82-1.37-1.52-1.77"/>
  </g>
  <g id="LINE-21" data-name="LINE">
    <line class="cls-1" x1="742.02" y1="198.01" x2="740.7" y2="194.58"/>
  </g>
  <g id="LINE-22" data-name="LINE">
    <line class="cls-1" x1="739.18" y1="192.81" x2="707.81" y2="174.7"/>
  </g>
  <g id="LINE-23" data-name="LINE">
    <line class="cls-1" x1="605.67" y1="365.65" x2="640.54" y2="385.79"/>
  </g>
  <g id="ARC-7" data-name="ARC">
    <path class="cls-1" d="M707.81,174.7c-1.37-.79-3.1-.56-4.22.55"/>
  </g>
  <g id="LINE-24" data-name="LINE">
    <line class="cls-1" x1="742.39" y1="197.65" x2="665.59" y2="274.26"/>
  </g>
  <g id="LWPOLYLINE-4" data-name="LWPOLYLINE">
    <polyline class="cls-1" points="665.59 274.26 664.14 275.76 661.47 278.76 658.94 281.95 656.57 285.31 654.36 288.81 652.34 292.43 650.52 296.14 648.92 299.91 647.55 303.71 646.41 307.51 645.53 311.29 644.91 315.02 644.55 318.68 644.47 321.49"/>
  </g>
  <g id="LINE-25" data-name="LINE">
    <line class="cls-1" x1="644.47" y1="321.49" x2="644.47" y2="388.05"/>
  </g>
  <g id="ARC-8" data-name="ARC">
    <path class="cls-1" d="M779.5,216.98c-.29-.75-.82-1.37-1.52-1.77"/>
  </g>
  <g id="LINE-26" data-name="LINE">
    <line class="cls-1" x1="779.79" y1="217.73" x2="779.5" y2="216.98"/>
  </g>
  <g id="LINE-27" data-name="LINE">
    <line class="cls-1" x1="777.98" y1="215.21" x2="746.61" y2="197.1"/>
  </g>
  <g id="LINE-28" data-name="LINE">
    <line class="cls-1" x1="644.47" y1="388.05" x2="679.34" y2="408.19"/>
  </g>
  <g id="ARC-9" data-name="ARC">
    <path class="cls-1" d="M746.61,197.1c-1.37-.79-3.1-.56-4.22.55"/>
  </g>
  <g id="LINE-29" data-name="LINE">
    <line class="cls-1" x1="587.19" y1="108.05" x2="510.39" y2="184.66"/>
  </g>
  <g id="LWPOLYLINE-5" data-name="LWPOLYLINE">
    <polyline class="cls-1" points="510.39 184.66 508.93 186.16 506.27 189.16 503.74 192.35 501.36 195.72 499.16 199.22 497.14 202.84 495.32 206.55 493.72 210.31 492.34 214.11 491.21 217.92 490.33 221.7 489.71 225.43 489.35 229.08 489.27 231.89"/>
  </g>
  <g id="LINE-30" data-name="LINE">
    <line class="cls-1" x1="489.27" y1="231.89" x2="489.27" y2="298.46"/>
  </g>
  <g id="ARC-10" data-name="ARC">
    <path class="cls-1" d="M624.3,127.38c-.29-.75-.82-1.37-1.52-1.77"/>
  </g>
  <g id="LINE-31" data-name="LINE">
    <line class="cls-1" x1="625.62" y1="130.82" x2="624.3" y2="127.38"/>
  </g>
  <g id="LINE-32" data-name="LINE">
    <line class="cls-1" x1="622.78" y1="125.61" x2="591.41" y2="107.5"/>
  </g>
  <g id="LINE-33" data-name="LINE">
    <line class="cls-1" x1="489.27" y1="298.46" x2="524.14" y2="318.59"/>
  </g>
  <g id="ARC-11" data-name="ARC">
    <path class="cls-1" d="M591.41,107.5c-1.37-.79-3.1-.56-4.22.55"/>
  </g>
  <g id="LINE-34" data-name="LINE">
    <line class="cls-1" x1="548.39" y1="85.65" x2="471.59" y2="162.26"/>
  </g>
  <g id="LWPOLYLINE-6" data-name="LWPOLYLINE">
    <polyline class="cls-1" points="471.59 162.26 470.13 163.76 467.47 166.76 464.94 169.96 462.56 173.32 460.36 176.82 458.34 180.44 456.52 184.15 454.92 187.91 453.54 191.71 452.41 195.52 451.53 199.3 450.91 203.03 450.55 206.68 450.47 209.49"/>
  </g>
  <g id="LINE-35" data-name="LINE">
    <line class="cls-1" x1="450.47" y1="209.49" x2="450.47" y2="276.06"/>
  </g>
  <g id="ARC-12" data-name="ARC">
    <path class="cls-1" d="M585.5,104.99c-.29-.75-.82-1.37-1.52-1.77"/>
  </g>
  <g id="LINE-36" data-name="LINE">
    <line class="cls-1" x1="586.82" y1="108.42" x2="585.5" y2="104.99"/>
  </g>
  <g id="LINE-37" data-name="LINE">
    <line class="cls-1" x1="583.98" y1="103.21" x2="552.61" y2="85.1"/>
  </g>
  <g id="LINE-38" data-name="LINE">
    <line class="cls-1" x1="450.47" y1="276.06" x2="485.34" y2="296.19"/>
  </g>
  <g id="ARC-13" data-name="ARC">
    <path class="cls-1" d="M552.61,85.1c-1.37-.79-3.1-.56-4.22.55"/>
  </g>
  <g id="LINE-39" data-name="LINE">
    <line class="cls-1" x1="424.04" y1="806.14" x2="430.65" y2="809.95"/>
  </g>
  <g id="LWPOLYLINE-7" data-name="LWPOLYLINE">
    <polyline class="cls-1" points="692.14 880.36 689.21 882.22 686.32 884.4 683.49 886.88 680.74 889.64 678.11 892.65 675.63 895.87 673.32 899.27 671.19 902.83 669.29 906.49 667.62 910.23 666.2 914.01 665.04 917.78 664.17 921.51 663.58 925.16 663.28 928.69 663.28 932.07 663.58 935.26 664.17 938.24 665.04 940.95 666.2 943.39 667.62 945.53 669.29 947.34 671.19 948.8 673.32 949.91 675.63 950.64 678.11 950.99 680.74 950.96 683.49 950.55 686.32 949.76 689.21 948.61 692.14 947.09"/>
  </g>
  <g id="LINE-40" data-name="LINE">
    <line class="cls-1" x1="692.14" y1="344.61" x2="692.14" y2="880.36"/>
  </g>
  <g id="LWPOLYLINE-8" data-name="LWPOLYLINE">
    <polyline class="cls-1" points="692.14 344.61 692.28 340.95 692.72 337.15 693.44 333.25 694.44 329.28 695.72 325.28 697.25 321.28 699.03 317.32 701.04 313.43 703.26 309.64 705.68 306 708.27 302.53 711 299.27 713.86 296.23"/>
  </g>
  <g id="LINE-41" data-name="LINE">
    <line class="cls-1" x1="783.69" y1="226.57" x2="713.86" y2="296.23"/>
  </g>
  <g id="LINE-42" data-name="LINE">
    <line class="cls-1" x1="774.69" y1="337" x2="811.93" y2="299.86"/>
  </g>
  <g id="LINE-43" data-name="LINE">
    <line class="cls-1" x1="774.69" y1="1016.69" x2="774.69" y2="337"/>
  </g>
  <g id="LINE-44" data-name="LINE">
    <line class="cls-1" x1="692.14" y1="947.09" x2="692.14" y2="1064.35"/>
  </g>
  <g id="LINE-45" data-name="LINE">
    <line class="cls-1" x1="777.09" y1="222.76" x2="707.26" y2="292.42"/>
  </g>
  <g id="LWPOLYLINE-9" data-name="LWPOLYLINE">
    <polyline class="cls-1" points="707.26 292.42 704.4 295.45 701.66 298.72 699.07 302.19 696.66 305.83 694.43 309.61 692.42 313.5 690.64 317.46 689.11 321.46 687.84 325.47 686.84 329.43 686.11 333.34 685.68 337.13 685.53 340.8"/>
  </g>
  <g id="LINE-46" data-name="LINE">
    <line class="cls-1" x1="692.14" y1="880.36" x2="685.53" y2="876.55"/>
  </g>
  <g id="LINE-47" data-name="LINE">
    <line class="cls-1" x1="685.53" y1="340.8" x2="685.53" y2="876.55"/>
  </g>
  <g id="LWPOLYLINE-10" data-name="LWPOLYLINE">
    <polyline class="cls-1" points="782.85 205.32 784.88 206.75 786.54 208.46 787.78 210.43 788.58 212.59 788.91 214.9 788.76 217.29 788.15 219.72 787.08 222.11 785.58 224.42 783.69 226.57"/>
  </g>
  <g id="LWPOLYLINE-11" data-name="LWPOLYLINE">
    <polyline class="cls-1" points="811.93 299.86 813.82 297.7 815.32 295.39 816.38 293 817 290.58 817.14 288.18 816.81 285.87 816.41 284.62"/>
  </g>
  <g id="LWPOLYLINE-12" data-name="LWPOLYLINE">
    <polyline class="cls-1" points="776.64 211.51 777.95 212.48 778.95 213.68 779.59 215.06 779.85 216.58 779.71 218.17 779.19 219.77 778.31 221.32 777.09 222.76"/>
  </g>
  <g id="LINE-48" data-name="LINE">
    <line class="cls-1" x1="776.64" y1="211.51" x2="666.84" y2="148.12"/>
  </g>
  <g id="LINE-49" data-name="LINE">
    <line class="cls-1" x1="782.85" y1="205.32" x2="673.05" y2="141.93"/>
  </g>
  <g id="LINE-50" data-name="LINE">
    <line class="cls-1" x1="666.84" y1="148.12" x2="668.34" y2="152"/>
  </g>
  <g id="LWPOLYLINE-13" data-name="LWPOLYLINE">
    <polyline class="cls-1" points="685.53 876.55 682.61 878.4 679.72 880.59 676.88 883.07 674.14 885.83 671.51 888.83 669.03 892.06 666.71 895.46 664.59 899.01 662.68 902.68 661.01 906.42 659.59 910.19 658.44 913.97 657.56 917.7 656.97 921.35 656.68 924.88 656.68 928.26 656.97 931.45 657.56 934.42 658.44 937.14 659.59 939.58 661.01 941.72 662.68 943.53 664.59 944.99 665.1 945.3"/>
  </g>
  <g id="LINE-51" data-name="LINE">
    <line class="cls-1" x1="685.53" y1="950.02" x2="685.53" y2="1060.53"/>
  </g>
  <g id="LWPOLYLINE-14" data-name="LWPOLYLINE">
    <polyline class="cls-1" points="685.53 1060.53 685.39 1062.13 684.97 1063.49 684.28 1064.58 683.36 1065.34 682.23 1065.76 680.95 1065.81 679.55 1065.5 678.1 1064.82"/>
  </g>
  <g id="LWPOLYLINE-15" data-name="LWPOLYLINE">
    <polyline class="cls-1" points="692.14 1064.35 691.96 1066.78 691.45 1068.96 690.61 1070.82 689.46 1072.33 688.03 1073.43 686.35 1074.12 684.47 1074.36 682.44 1074.16 680.3 1073.52 678.1 1072.45"/>
  </g>
  <g id="LWPOLYLINE-16" data-name="LWPOLYLINE">
    <polyline class="cls-1" points="770.58 1025.78 770.58 1025.78 772.01 1024.67 773.16 1023.16 774 1021.3 774.52 1019.12 774.69 1016.69"/>
  </g>
  <g id="LINE-52" data-name="LINE">
    <line class="cls-1" x1="568.31" y1="1009.07" x2="678.1" y2="1072.45"/>
  </g>
  <g id="LINE-53" data-name="LINE">
    <line class="cls-1" x1="568.31" y1="1009.07" x2="568.31" y2="1001.44"/>
  </g>
  <g id="LINE-54" data-name="LINE">
    <line class="cls-1" x1="568.31" y1="1001.44" x2="678.1" y2="1064.82"/>
  </g>
  <g id="LINE-55" data-name="LINE">
    <line class="cls-1" x1="650.86" y1="953.78" x2="568.31" y2="1001.44"/>
  </g>
  <g id="LINE-56" data-name="LINE">
    <line class="cls-1" x1="685.53" y1="973.8" x2="650.86" y2="953.78"/>
  </g>
  <g id="LINE-57" data-name="LINE">
    <line class="cls-1" x1="685.53" y1="957.6" x2="533.63" y2="869.91"/>
  </g>
  <g id="ARC-14" data-name="ARC">
    <path class="cls-1" d="M506.94,923.88c1.68.39,3.41.51,5.12.34"/>
  </g>
  <g id="ARC-15" data-name="ARC">
    <path class="cls-1" d="M513.74,923.96c1.24-.25,2.42-.69,3.51-1.32"/>
  </g>
  <g id="ARC-16" data-name="ARC">
    <path class="cls-1" d="M501.18,918.9c.01.71.24,1.41.66,1.99"/>
  </g>
  <g id="LWPOLYLINE-17" data-name="LWPOLYLINE">
    <polyline class="cls-1" points="506.94 925.4 508.87 925.73 510.89 925.81 512.89 925.64 514.77 925.22 516.46 924.58 517.87 923.75 518.94 922.76 519.61 921.66 519.83 920.85"/>
  </g>
  <g id="LWPOLYLINE-18" data-name="LWPOLYLINE">
    <polyline class="cls-1" points="501.18 920.42 501.22 920.93 501.62 922.07 502.45 923.13 503.64 924.07 505.16 924.84 506.94 925.4"/>
  </g>
  <g id="ARC-17" data-name="ARC">
    <path class="cls-1" d="M516.71,914.61c1.44-.64,2.42-2.01,2.56-3.57"/>
  </g>
  <g id="LWPOLYLINE-19" data-name="LWPOLYLINE">
    <polyline class="cls-1" points="501.76 911.03 501.92 911.98 502.47 913.03 503.41 913.98 504.67 914.79 506.21 915.43 507.95 915.86 509.81 916.07 511.7 916.04 513.54 915.78 515.23 915.29 516.71 914.61"/>
  </g>
  <g id="ARC-18" data-name="ARC">
    <path class="cls-1" d="M513.31,917.97c-1.67-.7-3.42-1.2-5.21-1.49"/>
  </g>
  <g id="LINE-58" data-name="LINE">
    <line class="cls-1" x1="513.31" y1="917.97" x2="513.31" y2="924.23"/>
  </g>
  <g id="LWPOLYLINE-20" data-name="LWPOLYLINE">
    <polyline class="cls-1" points="513.31 924.23 510.76 924.33 508.1 924.11"/>
  </g>
  <g id="ARC-19" data-name="ARC">
    <path class="cls-1" d="M502.89,922.62c1.67.7,3.42,1.2,5.21,1.49"/>
  </g>
  <g id="LINE-59" data-name="LINE">
    <line class="cls-1" x1="502.89" y1="916.35" x2="502.89" y2="922.62"/>
  </g>
  <g id="LWPOLYLINE-21" data-name="LWPOLYLINE">
    <polyline class="cls-1" points="502.89 916.35 505.44 916.25 508.1 916.48"/>
  </g>
  <g id="ARC-20" data-name="ARC">
    <path class="cls-1" d="M501.5,912.67c1.48,2.24,3.93,3.65,6.6,3.81"/>
  </g>
  <g id="ARC-21" data-name="ARC">
    <path class="cls-1" d="M501.76,909.39c-.66.97-.76,2.21-.27,3.27"/>
  </g>
  <g id="LINE-60" data-name="LINE">
    <line class="cls-1" x1="519.54" y1="909.87" x2="519.27" y2="909.39"/>
  </g>
  <g id="ARC-22" data-name="ARC">
    <path class="cls-1" d="M517.12,915.08c2.09-.79,3.16-3.1,2.42-5.21"/>
  </g>
  <g id="ARC-23" data-name="ARC">
    <path class="cls-1" d="M508.1,916.48c3.08.53,6.25.04,9.02-1.4"/>
  </g>
  <g id="LWPOLYLINE-22" data-name="LWPOLYLINE">
    <polyline class="cls-1" points="516.92 914.96 515.39 915.67 513.64 916.17 511.74 916.45 509.78 916.48 507.86 916.26 506.06 915.82 504.48 915.16 503.17 914.32 502.21 913.33 501.63 912.25 501.47 911.13 501.74 910.01 501.76 909.95"/>
  </g>
  <g id="LWPOLYLINE-23" data-name="LWPOLYLINE">
    <polyline class="cls-1" points="519.29 909.98 519.54 910.85 519.56 911.48"/>
  </g>
  <g id="LWPOLYLINE-24" data-name="LWPOLYLINE">
    <polyline class="cls-1" points="517.12 915.08 514.2 917.18 513.31 917.97"/>
  </g>
  <g id="ARC-24" data-name="ARC">
    <path class="cls-1" d="M502.89,916.35c-.39-1.26-.85-2.49-1.4-3.69"/>
  </g>
  <g id="LWPOLYLINE-25" data-name="LWPOLYLINE">
    <polyline class="cls-1" points="517.12 922.71 518.1 922.09 520.93 919.83"/>
  </g>
  <g id="LWPOLYLINE-26" data-name="LWPOLYLINE">
    <polyline class="cls-1" points="513.31 924.23 514.2 923.98 517.12 922.71"/>
  </g>
  <g id="LWPOLYLINE-27" data-name="LWPOLYLINE">
    <polyline class="cls-1" points="520.93 913.56 518.1 914.56 517.12 915.08"/>
  </g>
  <g id="LINE-61" data-name="LINE">
    <line class="cls-1" x1="520.93" y1="913.56" x2="520.93" y2="919.83"/>
  </g>
  <g id="LWPOLYLINE-28" data-name="LWPOLYLINE">
    <polyline class="cls-1" points="502.89 922.62 502.21 921.64 501.5 920.29"/>
  </g>
  <g id="ARC-25" data-name="ARC">
    <path class="cls-1" d="M500.1,916.6c.39,1.26.85,2.49,1.4,3.69"/>
  </g>
  <g id="LINE-62" data-name="LINE">
    <line class="cls-1" x1="500.1" y1="910.34" x2="500.1" y2="916.6"/>
  </g>
  <g id="LWPOLYLINE-29" data-name="LWPOLYLINE">
    <polyline class="cls-1" points="500.1 910.34 500.78 911.32 501.5 912.67"/>
  </g>
  <g id="LWPOLYLINE-30" data-name="LWPOLYLINE">
    <polyline class="cls-1" points="520.93 913.56 520.25 911.6 519.54 909.87"/>
  </g>
  <g id="LWPOLYLINE-31" data-name="LWPOLYLINE">
    <polyline class="cls-1" points="501.76 909 500.99 909.55 500.1 910.34"/>
  </g>
  <g id="LWPOLYLINE-32" data-name="LWPOLYLINE">
    <polyline class="cls-1" points="519.54 909.87 519.44 909.66 519.27 909.36"/>
  </g>
  <g id="LWPOLYLINE-33" data-name="LWPOLYLINE">
    <polyline class="cls-1" points="449.69 756.22 452.07 754.41 454.47 752.93 456.87 751.78 459.23 750.99 461.51 750.57 463.68 750.52 465.71 750.85 467.56 751.54 468.06 751.81"/>
  </g>
  <g id="LWPOLYLINE-34" data-name="LWPOLYLINE">
    <polyline class="cls-1" points="439.87 800.65 438.71 799.86 437.28 798.46 436.09 796.73 435.15 794.71 434.5 792.41 434.12 789.88 434.04 787.15 434.24 784.27 434.74 781.26 435.51 778.18 436.56 775.07 437.85 771.98 439.38 768.95 441.13 766.03 443.06 763.26 445.15 760.67 447.37 758.31 449.69 756.22"/>
  </g>
  <g id="LINE-63" data-name="LINE">
    <line class="cls-1" x1="605.06" y1="362.97" x2="605.67" y2="362.37"/>
  </g>
  <g id="ARC-26" data-name="ARC">
    <path class="cls-1" d="M604.22,363.63c.31-.18.59-.41.85-.66"/>
  </g>
  <g id="ELLIPSE">
    <path class="cls-1" d="M599.26,360.77c1.37,2.37,3.59,3.65,4.95,2.86"/>
  </g>
  <g id="ELLIPSE-2" data-name="ELLIPSE">
    <path class="cls-1" d="M567.89,342.66c-.66.38-1.03.59-1.03.59"/>
  </g>
  <g id="LINE-64" data-name="LINE">
    <line class="cls-1" x1="566.26" y1="340.57" x2="566.87" y2="339.97"/>
  </g>
  <g id="ARC-27" data-name="ARC">
    <path class="cls-1" d="M565.42,341.23c.31-.18.59-.41.85-.66"/>
  </g>
  <g id="ELLIPSE-3" data-name="ELLIPSE">
    <path class="cls-1" d="M560.46,338.37c1.37,2.37,3.59,3.65,4.95,2.86"/>
  </g>
  <g id="ELLIPSE-4" data-name="ELLIPSE">
    <path class="cls-1" d="M529.09,320.26c-.66.38-1.03.59-1.03.59"/>
  </g>
  <g id="LINE-65" data-name="LINE">
    <line class="cls-1" x1="643.86" y1="385.37" x2="644.47" y2="384.77"/>
  </g>
  <g id="ARC-28" data-name="ARC">
    <path class="cls-1" d="M643.02,386.03c.31-.18.59-.41.85-.66"/>
  </g>
  <g id="ELLIPSE-5" data-name="ELLIPSE">
    <path class="cls-1" d="M638.06,383.17c1.37,2.37,3.59,3.65,4.95,2.86"/>
  </g>
  <g id="ELLIPSE-6" data-name="ELLIPSE">
    <path class="cls-1" d="M606.69,365.06c-.66.38-1.03.59-1.03.59"/>
  </g>
  <g id="LINE-66" data-name="LINE">
    <line class="cls-1" x1="682.66" y1="407.77" x2="685.53" y2="404.91"/>
  </g>
  <g id="ARC-29" data-name="ARC">
    <path class="cls-1" d="M681.82,408.43c.31-.18.59-.41.85-.66"/>
  </g>
  <g id="ELLIPSE-7" data-name="ELLIPSE">
    <path class="cls-1" d="M676.86,405.57c1.37,2.37,3.59,3.65,4.95,2.86"/>
  </g>
  <g id="ELLIPSE-8" data-name="ELLIPSE">
    <path class="cls-1" d="M645.49,387.46c-.66.38-1.03.59-1.03.59"/>
  </g>
  <g id="LINE-67" data-name="LINE">
    <line class="cls-1" x1="527.46" y1="318.17" x2="528.07" y2="317.57"/>
  </g>
  <g id="ARC-30" data-name="ARC">
    <path class="cls-1" d="M526.62,318.83c.31-.18.59-.41.85-.66"/>
  </g>
  <g id="ELLIPSE-9" data-name="ELLIPSE">
    <path class="cls-1" d="M521.66,315.97c1.37,2.37,3.59,3.65,4.95,2.86"/>
  </g>
  <g id="ELLIPSE-10" data-name="ELLIPSE">
    <path class="cls-1" d="M490.29,297.86c-.66.38-1.03.59-1.03.59"/>
  </g>
  <g id="LINE-68" data-name="LINE">
    <line class="cls-1" x1="488.66" y1="295.77" x2="489.27" y2="295.17"/>
  </g>
  <g id="ARC-31" data-name="ARC">
    <path class="cls-1" d="M487.82,296.44c.31-.18.59-.41.85-.66"/>
  </g>
  <g id="ELLIPSE-11" data-name="ELLIPSE">
    <path class="cls-1" d="M482.86,293.58c1.37,2.37,3.59,3.65,4.95,2.86"/>
  </g>
  <g id="ELLIPSE-12" data-name="ELLIPSE">
    <path class="cls-1" d="M451.49,275.47c-.66.38-1.03.59-1.03.59"/>
  </g>
  <g id="ARC-32" data-name="ARC">
    <path class="cls-1" d="M472.81,157.07c-11.25,11.25-18.68,25.76-21.23,41.47"/>
  </g>
  <g id="LINE-69" data-name="LINE">
    <line class="cls-1" x1="542.63" y1="87.41" x2="472.81" y2="157.07"/>
  </g>
  <g id="LINE-70" data-name="LINE">
    <line class="cls-1" x1="533.63" y1="877.53" x2="533.63" y2="854.78"/>
  </g>
  <g id="LINE-71" data-name="LINE">
    <line class="cls-1" x1="533.63" y1="789.67" x2="533.63" y2="324.07"/>
  </g>
  <g id="LINE-72" data-name="LINE">
    <line class="cls-1" x1="451.08" y1="807.93" x2="451.08" y2="925.19"/>
  </g>
  <g id="LWPOLYLINE-35" data-name="LWPOLYLINE">
    <polyline class="cls-1" points="451.08 741.2 448.16 743.06 445.26 745.24 442.43 747.72 439.68 750.48 437.06 753.49 434.57 756.71 432.26 760.11 430.14 763.67 428.23 767.33 426.56 771.07 425.14 774.85 423.98 778.62 423.11 782.35 422.52 786 422.22 789.53 422.22 792.91 422.52 796.1 423.11 799.08 423.98 801.79 425.14 804.23 426.56 806.37 428.23 808.18 430.14 809.64 432.26 810.75 434.57 811.48 437.06 811.83 439.68 811.8 442.43 811.39 445.26 810.6 448.16 809.45 451.08 807.93"/>
  </g>
  <g id="LINE-73" data-name="LINE">
    <line class="cls-1" x1="451.08" y1="276.41" x2="451.08" y2="741.2"/>
  </g>
  <g id="LINE-74" data-name="LINE">
    <line class="cls-1" x1="563.25" y1="78.55" x2="673.05" y2="141.93"/>
  </g>
  <g id="LINE-75" data-name="LINE">
    <line class="cls-1" x1="673.05" y1="141.93" x2="666.84" y2="148.12"/>
  </g>
  <g id="LINE-76" data-name="LINE">
    <line class="cls-1" x1="557.05" y1="84.74" x2="666.84" y2="148.12"/>
  </g>
  <g id="LINE-77" data-name="LINE">
    <line class="cls-1" x1="536.03" y1="83.6" x2="466.2" y2="153.26"/>
  </g>
  <g id="LWPOLYLINE-36" data-name="LWPOLYLINE">
    <polyline class="cls-1" points="444.47 201.64 444.62 197.97 445.06 194.18 445.78 190.27 446.78 186.31 448.05 182.3 449.59 178.3 451.37 174.34 453.38 170.45 455.6 166.67 458.01 163.03 460.6 159.56 463.34 156.29 466.2 153.26"/>
  </g>
  <g id="LINE-78" data-name="LINE">
    <line class="cls-1" x1="444.47" y1="737.39" x2="451.08" y2="741.2"/>
  </g>
  <g id="LINE-79" data-name="LINE">
    <line class="cls-1" x1="444.47" y1="201.64" x2="444.47" y2="737.39"/>
  </g>
  <g id="LWPOLYLINE-37" data-name="LWPOLYLINE">
    <polyline class="cls-1" points="563.25 78.55 560.89 77.44 558.27 76.69 555.44 76.3 552.48 76.3 549.47 76.67 546.46 77.42 543.55 78.51 540.79 79.93 538.27 81.64 536.03 83.6"/>
  </g>
  <g id="ARC-33" data-name="ARC">
    <path class="cls-1" d="M557.05,84.74c-4.88-2.27-10.67-1.19-14.41,2.68"/>
  </g>
  <g id="LWPOLYLINE-38" data-name="LWPOLYLINE">
    <polyline class="cls-1" points="444.47 737.39 441.55 739.24 438.66 741.43 435.82 743.91 433.08 746.67 430.45 749.67 427.97 752.9 425.65 756.3 423.53 759.85 421.63 763.52 419.95 767.26 418.53 771.03 417.38 774.81 416.5 778.54 415.91 782.19 415.62 785.72 415.62 789.1 415.91 792.29 416.5 795.26 417.38 797.98 418.53 800.42 419.95 802.56 421.63 804.37 423.53 805.83 424.04 806.14"/>
  </g>
  <g id="LINE-80" data-name="LINE">
    <line class="cls-1" x1="568.31" y1="1001.44" x2="458.51" y2="938.06"/>
  </g>
  <g id="LINE-81" data-name="LINE">
    <line class="cls-1" x1="541.06" y1="890.4" x2="650.86" y2="953.78"/>
  </g>
  <g id="LINE-82" data-name="LINE">
    <line class="cls-1" x1="568.31" y1="1009.07" x2="458.51" y2="945.68"/>
  </g>
  <g id="LINE-83" data-name="LINE">
    <line class="cls-1" x1="444.47" y1="810.86" x2="444.47" y2="921.37"/>
  </g>
  <g id="ARC-34" data-name="ARC">
    <path class="cls-1" d="M533.63,877.53c.24,5.24,3.01,10.04,7.43,12.87"/>
  </g>
  <g id="ARC-35" data-name="ARC">
    <path class="cls-1" d="M451.08,925.19c.24,5.24,3.01,10.04,7.43,12.87"/>
  </g>
  <g id="ARC-36" data-name="ARC">
    <path class="cls-1" d="M444.47,921.37c.41,9.91,5.66,18.99,14.03,24.31"/>
  </g>
</svg>
    </svg>

<defs>
    <style>
        @import url("https://fonts.googleapis.com/css2?family=Montserrat:wght@500&amp;display=swap");
    </style>
</defs>

    <!-- Isometric Annotation Lines -->
    <line x1="72.16" y1="630" x2="280" y2="750" stroke="#6B7280" stroke-width="1.8" />
    <line x1="520" y1="750" x2="727.84" y2="630" stroke="#6B7280" stroke-width="1.8" />
    <line x1="756" y1="280" x2="756" y2="520" stroke="#6B7280" stroke-width="1.8" />

    <!-- Width text parallel to line -->
    <text x="164.08" y="710.8" font-family="'Montserrat', 'Helvetica Neue', Helvetica, Arial, sans-serif" font-size="24" font-weight="500" fill="#6B7280" text-anchor="middle" dominant-baseline="middle" transform="rotate(30, 164.08, 710.8)">30 cm</text>

    <!-- Depth text parallel to line -->
    <text x="635.92" y="710.8" font-family="'Montserrat', 'Helvetica Neue', Helvetica, Arial, sans-serif" font-size="24" font-weight="500" fill="#6B7280" text-anchor="middle" dominant-baseline="middle" transform="rotate(-30, 635.92, 710.8)">20 cm</text>

    <!-- Height text parallel to line (rotated vertically) -->
    <text x="780" y="400" font-family="'Montserrat', 'Helvetica Neue', Helvetica, Arial, sans-serif" font-size="24" font-weight="500" fill="#6B7280" text-anchor="middle" dominant-baseline="middle" transform="rotate(90, 780, 400)">85 cm</text>
</svg>