<?xml version="1.0" encoding="UTF-8"?>
<svg xmlns="http://www.w3.org/2000/svg" viewBox="0 0 800 800" width="800" height="800">
    <svg x="32" y="48" width="704" height="704" viewBox="0 0 1200 1200">
        <svg id="_9-007" data-name="9-007" xmlns="http://www.w3.org/2000/svg" viewBox="0 0 1200 1200">
  <defs>
    <style>
      .cls-1 {
        fill: none;
        stroke: #5e5f5f;
        stroke-linecap: round;
        stroke-linejoin: round;
        stroke-width: 4px;
      }
    </style>
  </defs>
  <g id="ARC">
    <path class="cls-1" d="M536.41,1006.27c0-3.93-3.18-7.11-7.11-7.11-.29,0-.57.02-.85.05"/>
  </g>
  <g id="ARC-2" data-name="ARC">
    <path class="cls-1" d="M528.44,999.22c-3.57.43-6.26,3.46-6.26,7.06"/>
  </g>
  <g id="LINE">
    <line class="cls-1" x1="536.41" y1="1008.25" x2="536.41" y2="1006.27"/>
  </g>
  <g id="LINE-2" data-name="LINE">
    <line class="cls-1" x1="522.19" y1="1006.27" x2="522.19" y2="1008.25"/>
  </g>
  <g id="ARC-3" data-name="ARC">
    <path class="cls-1" d="M611.34,952.17c-.44.95-.67,1.98-.67,3.02"/>
  </g>
  <g id="LINE-3" data-name="LINE">
    <line class="cls-1" x1="610.67" y1="955.2" x2="610.67" y2="957.17"/>
  </g>
  <g id="ARC-4" data-name="ARC">
    <path class="cls-1" d="M611.34,1046.05c-1.53-1.99-4-3.02-6.48-2.72"/>
  </g>
  <g id="ARC-5" data-name="ARC">
    <path class="cls-1" d="M604.86,1043.33c-3.57.43-6.26,3.46-6.26,7.06"/>
  </g>
  <g id="LINE-4" data-name="LINE">
    <line class="cls-1" x1="598.6" y1="1050.39" x2="598.6" y2="1052.37"/>
  </g>
  <g id="LINE-5" data-name="LINE">
    <line class="cls-1" x1="737.14" y1="189.6" x2="730.7" y2="185.89"/>
  </g>
  <g id="LINE-6" data-name="LINE">
    <line class="cls-1" x1="614.01" y1="1086.44" x2="734.66" y2="1016.79"/>
  </g>
  <g id="LINE-7" data-name="LINE">
    <line class="cls-1" x1="596.61" y1="1058.51" x2="596.61" y2="1060"/>
  </g>
  <g id="LINE-8" data-name="LINE">
    <line class="cls-1" x1="608.68" y1="963.32" x2="608.68" y2="964.81"/>
  </g>
  <g id="LINE-9" data-name="LINE">
    <line class="cls-1" x1="520.2" y1="1014.4" x2="520.2" y2="1015.89"/>
  </g>
  <g id="LINE-10" data-name="LINE">
    <line class="cls-1" x1="538.4" y1="1015.89" x2="538.4" y2="1014.4"/>
  </g>
  <g id="LINE-11" data-name="LINE">
    <line class="cls-1" x1="610.85" y1="116.7" x2="604.42" y2="112.99"/>
  </g>
  <g id="LINE-12" data-name="LINE">
    <line class="cls-1" x1="651.58" y1="172.53" x2="649.97" y2="173.46"/>
  </g>
  <g id="ARC-6" data-name="ARC">
    <path class="cls-1" d="M649.18,180.35c-.76,1.52-.85,3.29-.24,4.87"/>
  </g>
  <g id="ARC-7" data-name="ARC">
    <path class="cls-1" d="M648.93,185.22c.85,2.22,2.92,3.74,5.3,3.88"/>
  </g>
  <g id="LINE-13" data-name="LINE">
    <line class="cls-1" x1="655.36" y1="188.85" x2="655.67" y2="188.68"/>
  </g>
  <g id="LINE-14" data-name="LINE">
    <line class="cls-1" x1="650.27" y1="179.32" x2="649.96" y2="179.49"/>
  </g>
  <g id="LINE-15" data-name="LINE">
    <line class="cls-1" x1="656.69" y1="185.13" x2="656.74" y2="185.1"/>
  </g>
  <g id="LINE-16" data-name="LINE">
    <line class="cls-1" x1="653.9" y1="180.18" x2="653.84" y2="180.21"/>
  </g>
  <g id="LINE-17" data-name="LINE">
    <line class="cls-1" x1="660.89" y1="167.21" x2="652.05" y2="172.31"/>
  </g>
  <g id="LINE-18" data-name="LINE">
    <line class="cls-1" x1="662.22" y1="190.87" x2="677.36" y2="182.13"/>
  </g>
  <g id="LWPOLYLINE">
    <polyline class="cls-1" points="611.2 362.58 611.22 362.58 611.34 362.45"/>
  </g>
  <g id="LINE-19" data-name="LINE">
    <line class="cls-1" x1="493.18" y1="295.07" x2="610.93" y2="363.05"/>
  </g>
  <g id="LINE-20" data-name="LINE">
    <line class="cls-1" x1="728.58" y1="185.75" x2="610.38" y2="117.52"/>
  </g>
  <g id="LWPOLYLINE-2" data-name="LWPOLYLINE">
    <polyline class="cls-1" points="522.19 1008.25 522.34 1009.09 522.89 1010.03 523.82 1010.86 525.06 1011.55 526.55 1012.04 528.2 1012.31 529.91 1012.34 531.59 1012.14 533.13 1011.71 534.45 1011.08 535.47 1010.29 536.14 1009.37 536.4 1008.4 536.41 1008.25"/>
  </g>
  <g id="LWPOLYLINE-3" data-name="LWPOLYLINE">
    <polyline class="cls-1" points="526.99 1012.42 527.28 1012.48 531.05 1013.73"/>
  </g>
  <g id="LINE-21" data-name="LINE">
    <line class="cls-1" x1="531.05" y1="1013.73" x2="531.05" y2="1018.69"/>
  </g>
  <g id="LINE-22" data-name="LINE">
    <line class="cls-1" x1="531.05" y1="1018.69" x2="526.99" y2="1018.46"/>
  </g>
  <g id="LWPOLYLINE-4" data-name="LWPOLYLINE">
    <polyline class="cls-1" points="526.99 1018.46 526.71 1018.4 522.94 1017.15"/>
  </g>
  <g id="LINE-23" data-name="LINE">
    <line class="cls-1" x1="522.94" y1="1012.19" x2="522.94" y2="1017.15"/>
  </g>
  <g id="LINE-24" data-name="LINE">
    <line class="cls-1" x1="522.94" y1="1012.19" x2="526.99" y2="1012.42"/>
  </g>
  <g id="ARC-8" data-name="ARC">
    <path class="cls-1" d="M526.99,1012.42c2.44.49,4.98.18,7.24-.88"/>
  </g>
  <g id="LINE-25" data-name="LINE">
    <line class="cls-1" x1="531.05" y1="1013.73" x2="534.23" y2="1011.54"/>
  </g>
  <g id="LINE-26" data-name="LINE">
    <line class="cls-1" x1="536.41" y1="1007.19" x2="536.54" y2="1007.49"/>
  </g>
  <g id="ARC-9" data-name="ARC">
    <path class="cls-1" d="M534.23,1011.54c1.7-.55,2.7-2.31,2.3-4.06"/>
  </g>
  <g id="ARC-10" data-name="ARC">
    <path class="cls-1" d="M522.06,1009.24c1.01,1.82,2.86,3.01,4.93,3.18"/>
  </g>
  <g id="ARC-11" data-name="ARC">
    <path class="cls-1" d="M522.19,1007.19c-.33.64-.37,1.38-.13,2.05"/>
  </g>
  <g id="LWPOLYLINE-5" data-name="LWPOLYLINE">
    <polyline class="cls-1" points="522.21 1009.22 522.06 1008.22 522.19 1007.56"/>
  </g>
  <g id="LWPOLYLINE-6" data-name="LWPOLYLINE">
    <polyline class="cls-1" points="536.41 1007.56 536.54 1008.51 536.27 1009.51 535.59 1010.44 534.55 1011.25 533.2 1011.89 531.63 1012.32 529.92 1012.53 528.17 1012.5 526.49 1012.22 524.98 1011.72 523.71 1011.03 522.77 1010.18 522.21 1009.22"/>
  </g>
  <g id="LWPOLYLINE-7" data-name="LWPOLYLINE">
    <polyline class="cls-1" points="534.23 1011.54 534.46 1011.43 537.41 1010.44"/>
  </g>
  <g id="LINE-27" data-name="LINE">
    <line class="cls-1" x1="537.41" y1="1010.44" x2="537.41" y2="1015.4"/>
  </g>
  <g id="LINE-28" data-name="LINE">
    <line class="cls-1" x1="537.41" y1="1015.4" x2="534.23" y2="1017.58"/>
  </g>
  <g id="LWPOLYLINE-8" data-name="LWPOLYLINE">
    <polyline class="cls-1" points="534.23 1017.58 534 1017.7 531.05 1018.69"/>
  </g>
  <g id="LWPOLYLINE-9" data-name="LWPOLYLINE">
    <polyline class="cls-1" points="522.06 1009.24 522.73 1011.41 522.94 1012.19"/>
  </g>
  <g id="LWPOLYLINE-10" data-name="LWPOLYLINE">
    <polyline class="cls-1" points="522.94 1017.15 522.73 1016.8 522.06 1015.28"/>
  </g>
  <g id="LWPOLYLINE-11" data-name="LWPOLYLINE">
    <polyline class="cls-1" points="522.06 1015.28 521.84 1014.62 521.19 1012.33"/>
  </g>
  <g id="LINE-29" data-name="LINE">
    <line class="cls-1" x1="521.19" y1="1007.37" x2="521.19" y2="1012.33"/>
  </g>
  <g id="LWPOLYLINE-12" data-name="LWPOLYLINE">
    <polyline class="cls-1" points="521.19 1007.37 521.84 1008.66 522.06 1009.24"/>
  </g>
  <g id="LWPOLYLINE-13" data-name="LWPOLYLINE">
    <polyline class="cls-1" points="536.54 1007.49 537.21 1009.66 537.41 1010.44"/>
  </g>
  <g id="LINE-30" data-name="LINE">
    <line class="cls-1" x1="522.19" y1="1006.67" x2="521.19" y2="1007.37"/>
  </g>
  <g id="LINE-31" data-name="LINE">
    <line class="cls-1" x1="536.4" y1="1007.15" x2="536.54" y2="1007.49"/>
  </g>
  <g id="LWPOLYLINE-14" data-name="LWPOLYLINE">
    <polyline class="cls-1" points="610.67 957.17 610.82 958.02 611.34 958.92"/>
  </g>
  <g id="ARC-12" data-name="ARC">
    <path class="cls-1" d="M610.54,958.16c.18.46.45.88.8,1.23"/>
  </g>
  <g id="ARC-13" data-name="ARC">
    <path class="cls-1" d="M610.67,956.11c-.33.64-.37,1.38-.13,2.05"/>
  </g>
  <g id="LWPOLYLINE-15" data-name="LWPOLYLINE">
    <polyline class="cls-1" points="610.69 958.14 610.54 957.14 610.67 956.48"/>
  </g>
  <g id="LWPOLYLINE-16" data-name="LWPOLYLINE">
    <polyline class="cls-1" points="611.34 959.21 611.25 959.1 610.69 958.14"/>
  </g>
  <g id="LWPOLYLINE-17" data-name="LWPOLYLINE">
    <polyline class="cls-1" points="610.54 958.16 611.21 960.33 611.34 960.83"/>
  </g>
  <g id="LWPOLYLINE-18" data-name="LWPOLYLINE">
    <polyline class="cls-1" points="611.42 966.07 611.21 965.72 610.54 964.2"/>
  </g>
  <g id="LWPOLYLINE-19" data-name="LWPOLYLINE">
    <polyline class="cls-1" points="610.54 964.2 610.32 963.54 609.67 961.25"/>
  </g>
  <g id="LINE-32" data-name="LINE">
    <line class="cls-1" x1="609.67" y1="956.29" x2="609.67" y2="961.25"/>
  </g>
  <g id="LWPOLYLINE-20" data-name="LWPOLYLINE">
    <polyline class="cls-1" points="609.67 956.29 610.32 957.58 610.54 958.16"/>
  </g>
  <g id="LINE-33" data-name="LINE">
    <line class="cls-1" x1="610.67" y1="955.59" x2="609.67" y2="956.29"/>
  </g>
  <g id="LWPOLYLINE-21" data-name="LWPOLYLINE">
    <polyline class="cls-1" points="598.6 1052.37 598.75 1053.21 599.31 1054.14 600.23 1054.98 601.47 1055.66 602.96 1056.15 604.61 1056.42 606.32 1056.45 608 1056.25 609.54 1055.82 610.87 1055.19 611.34 1054.87"/>
  </g>
  <g id="LWPOLYLINE-22" data-name="LWPOLYLINE">
    <polyline class="cls-1" points="603.41 1056.53 603.7 1056.59 607.46 1057.84"/>
  </g>
  <g id="LINE-34" data-name="LINE">
    <line class="cls-1" x1="607.46" y1="1057.84" x2="607.46" y2="1062.8"/>
  </g>
  <g id="LINE-35" data-name="LINE">
    <line class="cls-1" x1="607.46" y1="1062.8" x2="603.41" y2="1062.57"/>
  </g>
  <g id="LWPOLYLINE-23" data-name="LWPOLYLINE">
    <polyline class="cls-1" points="603.41 1062.57 603.12 1062.51 599.35 1061.26"/>
  </g>
  <g id="LINE-36" data-name="LINE">
    <line class="cls-1" x1="599.35" y1="1056.3" x2="599.35" y2="1061.26"/>
  </g>
  <g id="LINE-37" data-name="LINE">
    <line class="cls-1" x1="599.35" y1="1056.3" x2="603.41" y2="1056.53"/>
  </g>
  <g id="ARC-14" data-name="ARC">
    <path class="cls-1" d="M603.41,1056.53c2.44.49,4.98.18,7.24-.88"/>
  </g>
  <g id="LINE-38" data-name="LINE">
    <line class="cls-1" x1="607.46" y1="1057.84" x2="610.65" y2="1055.66"/>
  </g>
  <g id="LWPOLYLINE-24" data-name="LWPOLYLINE">
    <polyline class="cls-1" points="611.34 1055.24 611.32 1055.26 610.65 1055.66"/>
  </g>
  <g id="ARC-15" data-name="ARC">
    <path class="cls-1" d="M598.48,1053.35c1.01,1.82,2.86,3.01,4.93,3.18"/>
  </g>
  <g id="ARC-16" data-name="ARC">
    <path class="cls-1" d="M598.6,1051.3c-.33.64-.37,1.38-.13,2.05"/>
  </g>
  <g id="LWPOLYLINE-25" data-name="LWPOLYLINE">
    <polyline class="cls-1" points="598.62 1053.34 598.47 1052.33 598.6 1051.67"/>
  </g>
  <g id="LWPOLYLINE-26" data-name="LWPOLYLINE">
    <polyline class="cls-1" points="611.34 1055.11 610.97 1055.36 609.62 1056 608.04 1056.44 606.33 1056.64 604.59 1056.61 602.91 1056.33 601.39 1055.83 600.12 1055.14 599.18 1054.29 598.62 1053.34"/>
  </g>
  <g id="LWPOLYLINE-27" data-name="LWPOLYLINE">
    <polyline class="cls-1" points="610.65 1055.66 610.87 1055.54 611.34 1055.38"/>
  </g>
  <g id="LINE-39" data-name="LINE">
    <line class="cls-1" x1="611.34" y1="1061.21" x2="610.65" y2="1061.69"/>
  </g>
  <g id="LWPOLYLINE-28" data-name="LWPOLYLINE">
    <polyline class="cls-1" points="610.65 1061.69 610.42 1061.81 607.46 1062.8"/>
  </g>
  <g id="LWPOLYLINE-29" data-name="LWPOLYLINE">
    <polyline class="cls-1" points="598.48 1053.35 599.15 1055.52 599.35 1056.3"/>
  </g>
  <g id="LWPOLYLINE-30" data-name="LWPOLYLINE">
    <polyline class="cls-1" points="599.35 1061.26 599.15 1060.91 598.48 1059.39"/>
  </g>
  <g id="LWPOLYLINE-31" data-name="LWPOLYLINE">
    <polyline class="cls-1" points="598.48 1059.39 598.25 1058.73 597.6 1056.44"/>
  </g>
  <g id="LINE-40" data-name="LINE">
    <line class="cls-1" x1="597.6" y1="1051.48" x2="597.6" y2="1056.44"/>
  </g>
  <g id="LWPOLYLINE-32" data-name="LWPOLYLINE">
    <polyline class="cls-1" points="597.6 1051.48 598.25 1052.77 598.48 1053.35"/>
  </g>
  <g id="LINE-41" data-name="LINE">
    <line class="cls-1" x1="598.6" y1="1050.78" x2="597.6" y2="1051.48"/>
  </g>
  <g id="LINE-42" data-name="LINE">
    <line class="cls-1" x1="615.77" y1="250.74" x2="622.2" y2="254.46"/>
  </g>
  <g id="ARC-17" data-name="ARC">
    <path class="cls-1" d="M622.2,254.46c-2.63,1.68-4.28,4.54-4.42,7.66"/>
  </g>
  <g id="LINE-43" data-name="LINE">
    <line class="cls-1" x1="617.78" y1="262.12" x2="611.34" y2="258.4"/>
  </g>
  <g id="ARC-18" data-name="ARC">
    <path class="cls-1" d="M615.77,250.74c-2.63,1.68-4.28,4.54-4.42,7.66"/>
  </g>
  <g id="ARC-19" data-name="ARC">
    <path class="cls-1" d="M738.43,192.47c.24-1.49-.77-2.89-2.26-3.13-.77-.13-1.56.09-2.16.58"/>
  </g>
  <g id="LINE-44" data-name="LINE">
    <line class="cls-1" x1="738.43" y1="1008.46" x2="738.43" y2="192.47"/>
  </g>
  <g id="LINE-45" data-name="LINE">
    <line class="cls-1" x1="617.78" y1="1078.11" x2="738.43" y2="1008.46"/>
  </g>
  <g id="LINE-46" data-name="LINE">
    <line class="cls-1" x1="617.78" y1="1078.11" x2="617.78" y2="262.12"/>
  </g>
  <g id="LINE-47" data-name="LINE">
    <line class="cls-1" x1="622.2" y1="254.46" x2="734.01" y2="189.91"/>
  </g>
  <g id="LINE-48" data-name="LINE">
    <line class="cls-1" x1="611.34" y1="1074.39" x2="617.78" y2="1078.11"/>
  </g>
  <g id="LINE-49" data-name="LINE">
    <line class="cls-1" x1="611.34" y1="1074.39" x2="611.34" y2="258.4"/>
  </g>
  <g id="LINE-50" data-name="LINE">
    <line class="cls-1" x1="727.57" y1="186.2" x2="734.01" y2="189.91"/>
  </g>
  <g id="LINE-51" data-name="LINE">
    <line class="cls-1" x1="615.77" y1="250.74" x2="727.57" y2="186.2"/>
  </g>
  <g id="ARC-20" data-name="ARC">
    <path class="cls-1" d="M730.7,185.89c-1.02-.46-2.22-.34-3.13.31"/>
  </g>
  <g id="LWPOLYLINE-33" data-name="LWPOLYLINE">
    <polyline class="cls-1" points="604.91 1085.54 606.92 1086.52 608.89 1087.11 610.75 1087.29 612.47 1087.07 614.01 1086.44 615.32 1085.42 616.38 1084.05 617.15 1082.34 617.62 1080.34 617.78 1078.11"/>
  </g>
  <g id="LINE-52" data-name="LINE">
    <line class="cls-1" x1="604.91" y1="1078.11" x2="604.91" y2="1085.54"/>
  </g>
  <g id="ARC-21" data-name="ARC">
    <path class="cls-1" d="M604.91,1078.11c1.7,1.39,4.2,1.13,5.59-.57.72-.88,1.03-2.03.84-3.15"/>
  </g>
  <g id="LWPOLYLINE-34" data-name="LWPOLYLINE">
    <polyline class="cls-1" points="734.66 1016.79 734.66 1016.79 735.97 1015.77 737.03 1014.39 737.8 1012.69 738.27 1010.69 738.43 1008.46"/>
  </g>
  <g id="LINE-53" data-name="LINE">
    <line class="cls-1" x1="551.42" y1="1047.23" x2="611.34" y2="1012.64"/>
  </g>
  <g id="LINE-54" data-name="LINE">
    <line class="cls-1" x1="604.91" y1="1078.11" x2="551.42" y2="1047.23"/>
  </g>
  <g id="LINE-55" data-name="LINE">
    <line class="cls-1" x1="604.91" y1="1085.54" x2="551.42" y2="1054.66"/>
  </g>
  <g id="LINE-56" data-name="LINE">
    <line class="cls-1" x1="551.42" y1="1054.66" x2="551.42" y2="1047.23"/>
  </g>
  <g id="LINE-57" data-name="LINE">
    <line class="cls-1" x1="610.84" y1="1062.85" x2="611.34" y2="1062.64"/>
  </g>
  <g id="LWPOLYLINE-35" data-name="LWPOLYLINE">
    <polyline class="cls-1" points="597.6 1056.13 597.44 1056.32 596.82 1057.4 596.61 1058.53 596.83 1059.66 597.46 1060.73 598.48 1061.7 599.84 1062.53 601.47 1063.16 603.3 1063.58 605.24 1063.76 607.21 1063.7 609.1 1063.39 610.84 1062.85"/>
  </g>
  <g id="LINE-58" data-name="LINE">
    <line class="cls-1" x1="610.84" y1="1064.34" x2="611.34" y2="1064.13"/>
  </g>
  <g id="LWPOLYLINE-36" data-name="LWPOLYLINE">
    <polyline class="cls-1" points="596.61 1060 596.61 1060.01 596.83 1061.14 597.46 1062.22 598.48 1063.19 599.84 1064.01 601.47 1064.65 603.3 1065.07 605.24 1065.25 607.21 1065.18 609.1 1064.88 610.84 1064.34"/>
  </g>
  <g id="ARC-22" data-name="ARC">
    <path class="cls-1" d="M608.68,964.81c.16,1.63,1.18,3.04,2.67,3.71"/>
  </g>
  <g id="LWPOLYLINE-37" data-name="LWPOLYLINE">
    <polyline class="cls-1" points="609.67 960.94 609.51 961.13 608.89 962.21 608.68 963.34 608.9 964.47 609.53 965.54 610.55 966.51 611.34 967.04"/>
  </g>
  <g id="LWPOLYLINE-38" data-name="LWPOLYLINE">
    <polyline class="cls-1" points="534.43 1020.23 535.92 1019.49 537.11 1018.58 537.93 1017.55 538.35 1016.44 538.4 1015.89"/>
  </g>
  <g id="LWPOLYLINE-39" data-name="LWPOLYLINE">
    <polyline class="cls-1" points="520.2 1015.89 520.2 1015.9 520.42 1017.03 521.05 1018.11 522.07 1019.08 523.43 1019.9 525.06 1020.54 526.89 1020.95 528.83 1021.13 530.79 1021.07 532.69 1020.76 534.43 1020.23"/>
  </g>
  <g id="LWPOLYLINE-40" data-name="LWPOLYLINE">
    <polyline class="cls-1" points="534.43 1018.74 535.92 1018 537.11 1017.1 537.93 1016.07 538.35 1014.96 538.34 1013.82 537.91 1012.71 537.41 1012.02"/>
  </g>
  <g id="LWPOLYLINE-41" data-name="LWPOLYLINE">
    <polyline class="cls-1" points="521.19 1012.02 521.03 1012.21 520.41 1013.29 520.2 1014.42 520.42 1015.54 521.05 1016.62 522.07 1017.59 523.43 1018.41 525.06 1019.05 526.89 1019.47 528.83 1019.65 530.79 1019.58 532.69 1019.28 534.43 1018.74"/>
  </g>
  <g id="LINE-59" data-name="LINE">
    <line class="cls-1" x1="485.06" y1="185.5" x2="491.49" y2="189.22"/>
  </g>
  <g id="ARC-23" data-name="ARC">
    <path class="cls-1" d="M489.48,177.84c-2.63,1.68-4.28,4.54-4.42,7.66"/>
  </g>
  <g id="LINE-60" data-name="LINE">
    <line class="cls-1" x1="495.92" y1="181.55" x2="489.48" y2="177.84"/>
  </g>
  <g id="ARC-24" data-name="ARC">
    <path class="cls-1" d="M495.92,181.55c-2.63,1.68-4.28,4.54-4.42,7.66"/>
  </g>
  <g id="LINE-61" data-name="LINE">
    <line class="cls-1" x1="491.49" y1="1005.21" x2="491.49" y2="189.22"/>
  </g>
  <g id="LINE-62" data-name="LINE">
    <line class="cls-1" x1="607.72" y1="117.01" x2="495.92" y2="181.55"/>
  </g>
  <g id="LWPOLYLINE-42" data-name="LWPOLYLINE">
    <polyline class="cls-1" points="612.03 118.47 611.81 117.8 611.4 117.16 610.85 116.7 610.18 116.45 609.42 116.42 608.59 116.61 607.72 117.01"/>
  </g>
  <g id="LINE-63" data-name="LINE">
    <line class="cls-1" x1="491.49" y1="1005.21" x2="485.06" y2="1001.49"/>
  </g>
  <g id="LINE-64" data-name="LINE">
    <line class="cls-1" x1="485.06" y1="1001.49" x2="485.06" y2="185.5"/>
  </g>
  <g id="LINE-65" data-name="LINE">
    <line class="cls-1" x1="601.29" y1="113.3" x2="489.48" y2="177.84"/>
  </g>
  <g id="LINE-66" data-name="LINE">
    <line class="cls-1" x1="607.72" y1="117.01" x2="601.29" y2="113.3"/>
  </g>
  <g id="ARC-25" data-name="ARC">
    <path class="cls-1" d="M604.42,112.99c-1.02-.46-2.22-.34-3.13.31"/>
  </g>
  <g id="LINE-67" data-name="LINE">
    <line class="cls-1" x1="497.93" y1="1016.35" x2="551.42" y2="1047.23"/>
  </g>
  <g id="LINE-68" data-name="LINE">
    <line class="cls-1" x1="497.93" y1="1023.78" x2="551.42" y2="1054.66"/>
  </g>
  <g id="LINE-69" data-name="LINE">
    <line class="cls-1" x1="497.93" y1="1016.35" x2="497.93" y2="1023.78"/>
  </g>
  <g id="ARC-26" data-name="ARC">
    <path class="cls-1" d="M491.49,1005.21c.21,4.54,2.61,8.7,6.43,11.15"/>
  </g>
  <g id="ARC-27" data-name="ARC">
    <path class="cls-1" d="M485.06,1001.49c.38,9.09,5.19,17.42,12.87,22.29"/>
  </g>
  <g id="LINE-70" data-name="LINE">
    <line class="cls-1" x1="665.37" y1="213.29" x2="594.59" y2="172.43"/>
  </g>
  <g id="LINE-71" data-name="LINE">
    <line class="cls-1" x1="594.59" y1="172.43" x2="595.38" y2="171.81"/>
  </g>
  <g id="LINE-72" data-name="LINE">
    <line class="cls-1" x1="666.3" y1="212.75" x2="595.38" y2="171.81"/>
  </g>
  <g id="LINE-73" data-name="LINE">
    <line class="cls-1" x1="594.59" y1="172.43" x2="596.6" y2="184.42"/>
  </g>
  <g id="LINE-74" data-name="LINE">
    <line class="cls-1" x1="547.81" y1="199.44" x2="571.94" y2="185.5"/>
  </g>
  <g id="LINE-75" data-name="LINE">
    <line class="cls-1" x1="585.21" y1="177.84" x2="594.6" y2="172.42"/>
  </g>
  <g id="LINE-76" data-name="LINE">
    <line class="cls-1" x1="595.52" y1="171.89" x2="613.35" y2="161.59"/>
  </g>
  <g id="LINE-77" data-name="LINE">
    <line class="cls-1" x1="613.35" y1="182.18" x2="613.35" y2="161.59"/>
  </g>
  <g id="LINE-78" data-name="LINE">
    <line class="cls-1" x1="547" y1="198.97" x2="571.13" y2="185.04"/>
  </g>
  <g id="LINE-79" data-name="LINE">
    <line class="cls-1" x1="584.4" y1="177.38" x2="612.55" y2="161.13"/>
  </g>
  <g id="LINE-80" data-name="LINE">
    <line class="cls-1" x1="612.55" y1="161.13" x2="613.35" y2="161.59"/>
  </g>
  <g id="LINE-81" data-name="LINE">
    <line class="cls-1" x1="612.63" y1="225.27" x2="612.63" y2="209"/>
  </g>
  <g id="ARC-28" data-name="ARC">
    <path class="cls-1" d="M612.55,227.08c.26-.57.29-1.22.08-1.81"/>
  </g>
  <g id="LWPOLYLINE-43" data-name="LWPOLYLINE">
    <polyline class="cls-1" points="612.55 227.08 612.69 226.38 612.76 226.17"/>
  </g>
  <g id="LINE-82" data-name="LINE">
    <line class="cls-1" x1="612.55" y1="227.08" x2="612.55" y2="227.33"/>
  </g>
  <g id="LINE-83" data-name="LINE">
    <line class="cls-1" x1="611.34" y1="153" x2="611.34" y2="161.83"/>
  </g>
  <g id="LINE-84" data-name="LINE">
    <line class="cls-1" x1="690.57" y1="198.74" x2="669.58" y2="186.62"/>
  </g>
  <g id="LINE-85" data-name="LINE">
    <line class="cls-1" x1="648.81" y1="174.63" x2="611.34" y2="153"/>
  </g>
  <g id="LINE-86" data-name="LINE">
    <line class="cls-1" x1="611.34" y1="153" x2="611.75" y2="152.77"/>
  </g>
  <g id="LINE-87" data-name="LINE">
    <line class="cls-1" x1="648.14" y1="177.49" x2="648.14" y2="202.27"/>
  </g>
  <g id="LWPOLYLINE-44" data-name="LWPOLYLINE">
    <polyline class="cls-1" points="660.61 184.69 660.45 183 659.99 181.21 659.25 179.42 658.26 177.71 657.08 176.17 655.76 174.88 654.38 173.89 652.99 173.27 651.67 173.05 650.49 173.22 649.5 173.79 648.76 174.73 648.3 175.98 648.14 177.49"/>
  </g>
  <g id="LINE-88" data-name="LINE">
    <line class="cls-1" x1="660.61" y1="197.16" x2="660.61" y2="184.69"/>
  </g>
  <g id="LINE-89" data-name="LINE">
    <line class="cls-1" x1="660.61" y1="197.16" x2="653.29" y2="197.81"/>
  </g>
  <g id="ARC-29" data-name="ARC">
    <path class="cls-1" d="M653.29,197.81c-.53.1-.89.61-.8,1.14"/>
  </g>
  <g id="LINE-90" data-name="LINE">
    <line class="cls-1" x1="652.49" y1="198.95" x2="652.49" y2="204.77"/>
  </g>
  <g id="ARC-30" data-name="ARC">
    <path class="cls-1" d="M656.71,185.25c.37-2.19-.87-4.34-2.95-5.12"/>
  </g>
  <g id="LWPOLYLINE-45" data-name="LWPOLYLINE">
    <polyline class="cls-1" points="651.58 172.53 652.1 172.29 653.28 172.12 654.6 172.35 655.99 172.97 657.37 173.95 658.69 175.24 659.87 176.78 660.86 178.49 661.6 180.28 662.06 182.07 662.22 183.76"/>
  </g>
  <g id="LINE-91" data-name="LINE">
    <line class="cls-1" x1="662.22" y1="183.76" x2="660.61" y2="184.69"/>
  </g>
  <g id="LINE-92" data-name="LINE">
    <line class="cls-1" x1="660.61" y1="197.16" x2="662.22" y2="196.23"/>
  </g>
  <g id="LINE-93" data-name="LINE">
    <line class="cls-1" x1="662.22" y1="196.23" x2="662.22" y2="183.76"/>
  </g>
  <g id="LINE-94" data-name="LINE">
    <line class="cls-1" x1="654.09" y1="198.03" x2="652.49" y2="198.95"/>
  </g>
  <g id="LWPOLYLINE-46" data-name="LWPOLYLINE">
    <polyline class="cls-1" points="654.12 197.74 654.11 197.79 654.09 198.03"/>
  </g>
  <g id="LINE-95" data-name="LINE">
    <line class="cls-1" x1="654.09" y1="198.03" x2="654.09" y2="205.7"/>
  </g>
  <g id="LWPOLYLINE-47" data-name="LWPOLYLINE">
    <polyline class="cls-1" points="651.7 187.74 652.26 187.5 652.6 186.92 652.65 186.1 652.42 185.15 651.93 184.21 651.27 183.44 650.52 182.95 649.82 182.81 649.25 183.05 648.92 183.62 648.86 184.45 649.09 185.4 649.58 186.33 650.25 187.1 650.99 187.6 651.7 187.74"/>
  </g>
  <g id="LWPOLYLINE-48" data-name="LWPOLYLINE">
    <polyline class="cls-1" points="654.23 189.1 654.55 189.1 655.37 188.85 656 188.25 656.38 187.35 656.48 186.21 656.3 184.93 655.85 183.58 655.17 182.28 654.29 181.12 653.3 180.19 652.26 179.55 651.25 179.26 650.35 179.33 649.61 179.76 649.18 180.35"/>
  </g>
  <g id="LWPOLYLINE-49" data-name="LWPOLYLINE">
    <polyline class="cls-1" points="655.67 188.68 655.68 188.67 656.3 188.07 656.68 187.17 656.79 186.04 656.61 184.75 656.16 183.41 655.47 182.11 654.6 180.95 653.61 180.01 652.57 179.38 651.56 179.08 650.65 179.15 650.27 179.32"/>
  </g>
  <g id="LINE-96" data-name="LINE">
    <line class="cls-1" x1="651.97" y1="185.18" x2="651.96" y2="186.78"/>
  </g>
  <g id="LINE-97" data-name="LINE">
    <line class="cls-1" x1="650.77" y1="183.67" x2="651.97" y2="185.18"/>
  </g>
  <g id="LINE-98" data-name="LINE">
    <line class="cls-1" x1="649.56" y1="183.76" x2="650.77" y2="183.67"/>
  </g>
  <g id="LINE-99" data-name="LINE">
    <line class="cls-1" x1="649.54" y1="185.37" x2="649.56" y2="183.76"/>
  </g>
  <g id="LINE-100" data-name="LINE">
    <line class="cls-1" x1="650.74" y1="186.87" x2="649.54" y2="185.37"/>
  </g>
  <g id="LINE-101" data-name="LINE">
    <line class="cls-1" x1="651.96" y1="186.78" x2="650.74" y2="186.87"/>
  </g>
  <g id="ARC-31" data-name="ARC">
    <path class="cls-1" d="M651.4,185.4c.16.2.35.38.56.52"/>
  </g>
  <g id="ARC-32" data-name="ARC">
    <path class="cls-1" d="M650.81,183.84c.02.57.23,1.12.59,1.56"/>
  </g>
  <g id="LINE-102" data-name="LINE">
    <line class="cls-1" x1="650.81" y1="183.72" x2="650.81" y2="183.84"/>
  </g>
  <g id="LINE-103" data-name="LINE">
    <line class="cls-1" x1="651.96" y1="186.17" x2="650.74" y2="186.87"/>
  </g>
  <g id="LINE-104" data-name="LINE">
    <line class="cls-1" x1="650.8" y1="184.64" x2="649.54" y2="185.37"/>
  </g>
  <g id="LINE-105" data-name="LINE">
    <line class="cls-1" x1="650.81" y1="183.84" x2="650.81" y2="183.72"/>
  </g>
  <g id="LINE-106" data-name="LINE">
    <line class="cls-1" x1="650.8" y1="184.64" x2="650.81" y2="183.84"/>
  </g>
  <g id="LINE-107" data-name="LINE">
    <line class="cls-1" x1="651.4" y1="185.4" x2="650.8" y2="184.64"/>
  </g>
  <g id="LINE-108" data-name="LINE">
    <line class="cls-1" x1="651.96" y1="186.1" x2="651.4" y2="185.4"/>
  </g>
  <g id="LINE-109" data-name="LINE">
    <line class="cls-1" x1="674.09" y1="174.83" x2="662.42" y2="181.56"/>
  </g>
  <g id="LWPOLYLINE-50" data-name="LWPOLYLINE">
    <polyline class="cls-1" points="660.91 178.6 661.5 179.6 662.42 181.56"/>
  </g>
  <g id="LINE-110" data-name="LINE">
    <line class="cls-1" x1="662.42" y1="181.56" x2="662.42" y2="190.37"/>
  </g>
  <g id="LINE-111" data-name="LINE">
    <line class="cls-1" x1="662.42" y1="190.37" x2="662.22" y2="190.63"/>
  </g>
  <g id="LINE-112" data-name="LINE">
    <line class="cls-1" x1="677.5" y1="181.67" x2="662.42" y2="190.37"/>
  </g>
  <g id="LINE-113" data-name="LINE">
    <line class="cls-1" x1="677.5" y1="182.04" x2="677.36" y2="182.13"/>
  </g>
  <g id="LINE-114" data-name="LINE">
    <line class="cls-1" x1="491.45" y1="191.05" x2="611.38" y2="260.29"/>
  </g>
  <g id="ARC-33" data-name="ARC">
    <path class="cls-1" d="M497.49,180.6c-3.59,2.3-5.84,6.19-6.03,10.45"/>
  </g>
  <g id="LINE-115" data-name="LINE">
    <line class="cls-1" x1="497.49" y1="180.6" x2="617.42" y2="249.84"/>
  </g>
  <g id="LINE-116" data-name="LINE">
    <line class="cls-1" x1="611.38" y1="260.29" x2="611.38" y2="362.27"/>
  </g>
  <g id="LINE-117" data-name="LINE">
    <line class="cls-1" x1="491.45" y1="293.04" x2="611.38" y2="362.27"/>
  </g>
  <g id="LINE-118" data-name="LINE">
    <line class="cls-1" x1="491.45" y1="191.05" x2="491.45" y2="293.04"/>
  </g>
  <g id="LWPOLYLINE-51" data-name="LWPOLYLINE">
    <polyline class="cls-1" points="587.52 325.92 586.02 324.56 584.88 322.9 584.06 321.04 583.23 318.13 582.66 315.31 581.96 312.5 580.74 309.63 579.63 307.88 578.28 306.46 576.71 305.53"/>
  </g>
  <g id="LWPOLYLINE-52" data-name="LWPOLYLINE">
    <polyline class="cls-1" points="576.71 305.53 578.21 306.89 579.34 308.55 580.17 310.41 581 313.32 581.56 316.14 582.27 318.95 583.48 321.82 584.6 323.57 585.95 324.98 587.52 325.92"/>
  </g>
  <g id="LWPOLYLINE-53" data-name="LWPOLYLINE">
    <polyline class="cls-1" points="591.44 326.11 589.82 325 588.53 323.72 587.49 322.01 586.38 318.98 585.74 316.09 585.08 313.29 583.88 310.39 583.05 309.03 582.09 307.84 581 306.88 579.81 306.23"/>
  </g>
  <g id="LWPOLYLINE-54" data-name="LWPOLYLINE">
    <polyline class="cls-1" points="579.81 306.23 581.28 307.64 582.4 309.33 583.22 311.2 584.05 314.1 584.61 316.92 585.33 319.74 586.55 322.63 588.31 325.09 590.56 326.86"/>
  </g>
  <g id="LWPOLYLINE-55" data-name="LWPOLYLINE">
    <polyline class="cls-1" points="590.56 326.86 592.47 328.03 594.29 329.51 594.99 330.49 595.46 331.66 595.63 333.06 595.43 334.73"/>
  </g>
  <g id="LWPOLYLINE-56" data-name="LWPOLYLINE">
    <polyline class="cls-1" points="595.43 334.73 595.89 333.9 596.05 332.74 595.89 331.4 595.42 330.04 594.66 328.77 593.64 327.65 592.45 326.73 591.44 326.11"/>
  </g>
  <g id="LINE-119" data-name="LINE">
    <line class="cls-1" x1="592.02" y1="334.04" x2="565.44" y2="318.69"/>
  </g>
  <g id="LINE-120" data-name="LINE">
    <line class="cls-1" x1="565.44" y1="318.69" x2="565.44" y2="324.32"/>
  </g>
  <g id="LINE-121" data-name="LINE">
    <line class="cls-1" x1="565.44" y1="324.32" x2="592.02" y2="339.67"/>
  </g>
  <g id="LINE-122" data-name="LINE">
    <line class="cls-1" x1="592.02" y1="339.67" x2="592.02" y2="334.04"/>
  </g>
  <g id="LINE-123" data-name="LINE">
    <line class="cls-1" x1="593.8" y1="335.06" x2="593.8" y2="340.7"/>
  </g>
  <g id="LINE-124" data-name="LINE">
    <line class="cls-1" x1="593.8" y1="340.7" x2="595.62" y2="341.75"/>
  </g>
  <g id="LINE-125" data-name="LINE">
    <line class="cls-1" x1="595.62" y1="341.75" x2="595.62" y2="336.12"/>
  </g>
  <g id="LINE-126" data-name="LINE">
    <line class="cls-1" x1="595.62" y1="336.12" x2="593.8" y2="335.06"/>
  </g>
  <g id="LINE-127" data-name="LINE">
    <line class="cls-1" x1="599.32" y1="343.88" x2="599.32" y2="338.25"/>
  </g>
  <g id="LINE-128" data-name="LINE">
    <line class="cls-1" x1="599.32" y1="338.25" x2="597.49" y2="337.2"/>
  </g>
  <g id="LINE-129" data-name="LINE">
    <line class="cls-1" x1="597.49" y1="337.2" x2="597.49" y2="342.83"/>
  </g>
  <g id="LINE-130" data-name="LINE">
    <line class="cls-1" x1="597.49" y1="342.83" x2="599.32" y2="343.88"/>
  </g>
  <g id="LINE-131" data-name="LINE">
    <line class="cls-1" x1="606.07" y1="117.92" x2="497.49" y2="180.6"/>
  </g>
  <g id="LINE-132" data-name="LINE">
    <line class="cls-1" x1="606.07" y1="117.92" x2="726" y2="187.15"/>
  </g>
  <g id="LINE-133" data-name="LINE">
    <line class="cls-1" x1="726" y1="187.15" x2="617.42" y2="249.84"/>
  </g>
  <g id="LINE-134" data-name="LINE">
    <line class="cls-1" x1="643.92" y1="225.67" x2="617.68" y2="240.81"/>
  </g>
  <g id="LINE-135" data-name="LINE">
    <line class="cls-1" x1="643.92" y1="225.67" x2="539.35" y2="165.3"/>
  </g>
  <g id="LINE-136" data-name="LINE">
    <line class="cls-1" x1="539.35" y1="165.3" x2="513.12" y2="180.45"/>
  </g>
  <g id="LINE-137" data-name="LINE">
    <line class="cls-1" x1="513.12" y1="180.45" x2="513.36" y2="180.59"/>
  </g>
  <g id="LINE-138" data-name="LINE">
    <line class="cls-1" x1="617.44" y1="240.67" x2="513.36" y2="180.59"/>
  </g>
  <g id="LINE-139" data-name="LINE">
    <line class="cls-1" x1="617.68" y1="240.81" x2="617.44" y2="240.67"/>
  </g>
  <g id="LINE-140" data-name="LINE">
    <line class="cls-1" x1="704.25" y1="190.84" x2="599.68" y2="130.48"/>
  </g>
  <g id="LINE-141" data-name="LINE">
    <line class="cls-1" x1="599.68" y1="130.48" x2="551.42" y2="158.34"/>
  </g>
  <g id="LINE-142" data-name="LINE">
    <line class="cls-1" x1="551.42" y1="158.34" x2="655.99" y2="218.7"/>
  </g>
  <g id="LINE-143" data-name="LINE">
    <line class="cls-1" x1="704.25" y1="190.84" x2="655.99" y2="218.7"/>
  </g>
  <g id="ARC-34" data-name="ARC">
    <path class="cls-1" d="M618.44,240.38c-.35,0-.7.11-.99.3"/>
  </g>
  <g id="ARC-35" data-name="ARC">
    <path class="cls-1" d="M514.89,180.44c-.5-.23-1.09-.17-1.54.15"/>
  </g>
  <g id="LINE-144" data-name="LINE">
    <line class="cls-1" x1="618.58" y1="240.29" x2="514.89" y2="180.44"/>
  </g>
  <g id="LINE-145" data-name="LINE">
    <line class="cls-1" x1="539.35" y1="166.7" x2="539.35" y2="165.3"/>
  </g>
  <g id="LINE-146" data-name="LINE">
    <line class="cls-1" x1="642.71" y1="226.36" x2="539.35" y2="166.7"/>
  </g>
  <g id="LINE-147" data-name="LINE">
    <line class="cls-1" x1="591.76" y1="326.17" x2="590.56" y2="326.86"/>
  </g>
  <g id="LINE-148" data-name="LINE">
    <line class="cls-1" x1="598.7" y1="342.13" x2="597.49" y2="342.83"/>
  </g>
  <g id="LINE-149" data-name="LINE">
    <line class="cls-1" x1="598.7" y1="337.89" x2="598.7" y2="342.13"/>
  </g>
  <g id="LWPOLYLINE-57" data-name="LWPOLYLINE">
    <polyline class="cls-1" points="611.23 362.6 611.1 362.87 610.93 363.05 611.01 362.82 611.38 362.27"/>
  </g>
  <g id="LWPOLYLINE-58" data-name="LWPOLYLINE">
    <polyline class="cls-1" points="491.45 293.04 492.16 294.22 493.18 295.07 493.18 295.07"/>
  </g>
  <g id="LINE-150" data-name="LINE">
    <line class="cls-1" x1="598.7" y1="342.13" x2="599.32" y2="342.49"/>
  </g>
  <g id="LINE-151" data-name="LINE">
    <line class="cls-1" x1="595.01" y1="340" x2="593.8" y2="340.7"/>
  </g>
  <g id="LINE-152" data-name="LINE">
    <line class="cls-1" x1="595.01" y1="335.76" x2="595.01" y2="340"/>
  </g>
  <g id="LINE-153" data-name="LINE">
    <line class="cls-1" x1="595.01" y1="340" x2="595.62" y2="340.36"/>
  </g>
  <g id="LINE-154" data-name="LINE">
    <line class="cls-1" x1="566.65" y1="323.63" x2="565.44" y2="324.32"/>
  </g>
  <g id="LINE-155" data-name="LINE">
    <line class="cls-1" x1="566.65" y1="323.63" x2="592.02" y2="338.28"/>
  </g>
  <g id="LINE-156" data-name="LINE">
    <line class="cls-1" x1="599.68" y1="131.87" x2="599.68" y2="130.48"/>
  </g>
  <g id="LINE-157" data-name="LINE">
    <line class="cls-1" x1="703.04" y1="191.54" x2="599.68" y2="131.87"/>
  </g>
  <g id="ARC-36" data-name="ARC">
    <path class="cls-1" d="M610.34,117.49c-1.4-.63-3.02-.47-4.27.42"/>
  </g>
  <g id="LINE-158" data-name="LINE">
    <line class="cls-1" x1="610.94" y1="152.31" x2="649.04" y2="174.3"/>
  </g>
  <g id="LINE-159" data-name="LINE">
    <line class="cls-1" x1="669.98" y1="186.39" x2="690.97" y2="198.51"/>
  </g>
  <g id="ARC-37" data-name="ARC">
    <path class="cls-1" d="M674.4,183.84c1.2.02,2.34-.5,3.1-1.43"/>
  </g>
  <g id="LINE-160" data-name="LINE">
    <line class="cls-1" x1="677.5" y1="176.79" x2="677.5" y2="182.41"/>
  </g>
  <g id="LINE-161" data-name="LINE">
    <line class="cls-1" x1="566.65" y1="319.39" x2="566.65" y2="323.63"/>
  </g>
  <g id="LINE-162" data-name="LINE">
    <line class="cls-1" x1="539.35" y1="166.7" x2="515.22" y2="180.63"/>
  </g>
  <g id="LINE-163" data-name="LINE">
    <line class="cls-1" x1="599.68" y1="131.87" x2="552.63" y2="159.03"/>
  </g>
  <g id="LWPOLYLINE-59" data-name="LWPOLYLINE">
    <polyline class="cls-1" points="677.01 182.91 676.53 183.05 675.6 183.14"/>
  </g>
  <g id="LINE-164" data-name="LINE">
    <line class="cls-1" x1="522.34" y1="1007.12" x2="522.19" y2="1006.27"/>
  </g>
  <g id="LWPOLYLINE-60" data-name="LWPOLYLINE">
    <polyline class="cls-1" points="536.41 1006.27 536.4 1006.42 536.14 1007.39 535.47 1008.31 534.45 1009.1 533.13 1009.73 531.59 1010.16 529.91 1010.36 528.2 1010.33 526.55 1010.06 525.06 1009.57 523.82 1008.89 522.89 1008.05 522.34 1007.12"/>
  </g>
  <g id="LWPOLYLINE-61" data-name="LWPOLYLINE">
    <polyline class="cls-1" points="611.34 956.94 610.82 956.04 610.67 955.2"/>
  </g>
  <g id="LINE-165" data-name="LINE">
    <line class="cls-1" x1="598.75" y1="1051.23" x2="598.6" y2="1050.39"/>
  </g>
  <g id="LWPOLYLINE-62" data-name="LWPOLYLINE">
    <polyline class="cls-1" points="611.34 1052.89 610.87 1053.21 609.54 1053.84 608 1054.27 606.32 1054.48 604.61 1054.44 602.96 1054.17 601.47 1053.68 600.23 1053 599.31 1052.17 598.75 1051.23"/>
  </g>
  <g id="LINE-166" data-name="LINE">
    <line class="cls-1" x1="611.34" y1="1074.39" x2="604.91" y2="1078.11"/>
  </g>
  <g id="LINE-167" data-name="LINE">
    <line class="cls-1" x1="611.34" y1="936.02" x2="491.49" y2="1005.21"/>
  </g>
  <g id="LINE-168" data-name="LINE">
    <line class="cls-1" x1="497.93" y1="1016.35" x2="524.55" y2="1000.99"/>
  </g>
  <g id="LINE-169" data-name="LINE">
    <line class="cls-1" x1="527.09" y1="999.51" x2="611.34" y2="950.88"/>
  </g>
  <g id="LINE-170" data-name="LINE">
    <line class="cls-1" x1="604.12" y1="231.94" x2="612.55" y2="227.08"/>
  </g>
  <g id="LINE-171" data-name="LINE">
    <line class="cls-1" x1="612.55" y1="227.08" x2="627.01" y2="235.43"/>
  </g>
  <g id="LINE-172" data-name="LINE">
    <line class="cls-1" x1="612.63" y1="225.17" x2="602.51" y2="231.02"/>
  </g>
  <g id="LINE-173" data-name="LINE">
    <line class="cls-1" x1="628.62" y1="234.5" x2="612.63" y2="225.27"/>
  </g>
  <g id="LINE-174" data-name="LINE">
    <line class="cls-1" x1="551.42" y1="158.34" x2="599.68" y2="130.48"/>
  </g>
  <g id="LINE-175" data-name="LINE">
    <line class="cls-1" x1="599.68" y1="130.48" x2="704.25" y2="190.84"/>
  </g>
  <g id="LINE-176" data-name="LINE">
    <line class="cls-1" x1="704.25" y1="190.84" x2="655.99" y2="218.7"/>
  </g>
  <g id="LINE-177" data-name="LINE">
    <line class="cls-1" x1="655.99" y1="218.7" x2="551.42" y2="158.34"/>
  </g>
  <g id="HATCH">
    <polygon class="cls-1" points="599.68 130.48 704.25 190.84 655.99 218.7 551.42 158.34 599.68 130.48"/>
    <path class="cls-1" d="M586.91,137.85h25.53M571.27,146.87h56.81M555.63,155.9h88.09M562.84,164.93h96.52M578.49,173.96h96.52M594.13,182.99h96.52M609.77,192.02h92.44M625.41,201.05h61.16M641.05,210.08h29.87M583.87,177.07v-37.46M619.98,197.92v-55.72M656.1,218.64v-55.59M692.22,197.79v-13.89"/>
  </g>
</svg>
    </svg>

<defs>
    <style>
        @import url("https://fonts.googleapis.com/css2?family=Montserrat:wght@500&amp;display=swap");
    </style>
</defs>

    <!-- Isometric Annotation Lines -->
    <line x1="72.16" y1="630" x2="280" y2="750" stroke="#6B7280" stroke-width="1.8" />
    <line x1="520" y1="750" x2="727.84" y2="630" stroke="#6B7280" stroke-width="1.8" />
    <line x1="756" y1="280" x2="756" y2="520" stroke="#6B7280" stroke-width="1.8" />

    <!-- Width text parallel to line -->
    <text x="164.08" y="710.8" font-family="'Montserrat', 'Helvetica Neue', Helvetica, Arial, sans-serif" font-size="24" font-weight="500" fill="#6B7280" text-anchor="middle" dominant-baseline="middle" transform="rotate(30, 164.08, 710.8)">17 cm</text>

    <!-- Depth text parallel to line -->
    <text x="635.92" y="710.8" font-family="'Montserrat', 'Helvetica Neue', Helvetica, Arial, sans-serif" font-size="24" font-weight="500" fill="#6B7280" text-anchor="middle" dominant-baseline="middle" transform="rotate(-30, 635.92, 710.8)">15 cm</text>

    <!-- Height text parallel to line (rotated vertically) -->
    <text x="780" y="400" font-family="'Montserrat', 'Helvetica Neue', Helvetica, Arial, sans-serif" font-size="24" font-weight="500" fill="#6B7280" text-anchor="middle" dominant-baseline="middle" transform="rotate(90, 780, 400)">90 cm</text>
</svg>